<svg width="69" height="71" viewBox="0 0 69 71" fill="none" xmlns="http://www.w3.org/2000/svg">
<path d="M63.2249 8.48068H4.78741C3.80148 8.4818 2.85623 8.88459 2.15906 9.60068C1.4619 10.3168 1.06975 11.2877 1.06866 12.3004V50.4971C1.06975 51.5098 1.4619 52.4807 2.15906 53.1968C2.85623 53.9129 3.80148 54.3157 4.78741 54.3168H26.0613L24.7863 57.5908H19.1312C18.8494 57.5908 18.5791 57.7058 18.3799 57.9105C18.1806 58.1151 18.0687 58.3927 18.0687 58.6821V60.8648H11.6937C11.4119 60.8648 11.1416 60.9798 10.9424 61.1845C10.7431 61.3891 10.6312 61.6667 10.6312 61.9562C10.6312 62.2456 10.7431 62.5232 10.9424 62.7278C11.1416 62.9325 11.4119 63.0475 11.6937 63.0475H56.3187C56.6005 63.0475 56.8707 62.9325 57.07 62.7278C57.2692 62.5232 57.3812 62.2456 57.3812 61.9562C57.3812 61.6667 57.2692 61.3891 57.07 61.1845C56.8707 60.9798 56.6005 60.8648 56.3187 60.8648H49.9437V58.6821C49.9437 58.3927 49.8317 58.1151 49.6325 57.9105C49.4332 57.7058 49.163 57.5908 48.8812 57.5908H43.226L41.951 54.3168H63.2249C64.2109 54.3157 65.1561 53.9129 65.8533 53.1968C66.5504 52.4807 66.9426 51.5098 66.9437 50.4971V12.3004C66.9426 11.2877 66.5504 10.3168 65.8533 9.60068C65.1561 8.88459 64.2109 8.4818 63.2249 8.48068ZM47.8187 59.7735V60.8648H20.1937V59.7735H47.8187ZM27.076 57.5908L28.351 54.3168H39.6613L40.9363 57.5908H27.076ZM64.8187 50.4971C64.8183 50.9312 64.6503 51.3473 64.3515 51.6543C64.0527 51.9612 63.6475 52.1338 63.2249 52.1341H4.78741C4.36483 52.1338 3.95966 51.9612 3.66085 51.6543C3.36204 51.3473 3.19402 50.9312 3.19366 50.4971V47.7688H64.8187V50.4971ZM64.8187 45.5861H3.19366V12.3004C3.19402 11.8663 3.36204 11.4501 3.66085 11.1432C3.95966 10.8363 4.36483 10.6637 4.78741 10.6634H63.2249C63.6475 10.6637 64.0527 10.8363 64.3515 11.1432C64.6503 11.4501 64.8183 11.8663 64.8187 12.3004V45.5861Z" fill="#CCF381"/>
<path d="M29.1731 36.6764C29.2898 36.7551 29.4204 36.8093 29.5574 36.8361C29.6945 36.8629 29.8354 36.8617 29.972 36.8326C30.1086 36.8034 30.2383 36.7469 30.3537 36.6663C30.4691 36.5857 30.5679 36.4825 30.6444 36.3627L39.0116 23.2666C39.1662 23.0247 39.2209 22.7295 39.1637 22.4461C39.1065 22.1627 38.942 21.9142 38.7064 21.7554C38.4708 21.5966 38.1835 21.5404 37.9075 21.5992C37.6316 21.658 37.3897 21.8269 37.2351 22.0689L28.8679 35.1649C28.7913 35.2848 28.7384 35.4189 28.7123 35.5597C28.6862 35.7005 28.6873 35.8453 28.7157 35.9856C28.744 36.126 28.799 36.2592 28.8775 36.3778C28.956 36.4963 29.0564 36.5978 29.1731 36.6764Z" fill="#CCF381"/>
<path d="M40.7635 36.6025C40.98 36.7878 41.2592 36.8771 41.5399 36.8509C41.8205 36.8247 42.0795 36.685 42.2599 36.4627L47.5724 29.9146C47.7315 29.7185 47.8186 29.4713 47.8186 29.2161C47.8186 28.9608 47.7315 28.7136 47.5724 28.5175L42.2599 21.9694C42.1708 21.8584 42.0613 21.7666 41.9376 21.6992C41.8139 21.6318 41.6784 21.5902 41.539 21.5767C41.3996 21.5633 41.259 21.5783 41.1252 21.6209C40.9914 21.6635 40.8672 21.7328 40.7596 21.8249C40.652 21.9169 40.5632 22.0299 40.4983 22.1574C40.4334 22.2848 40.3937 22.4242 40.3814 22.5675C40.3691 22.7108 40.3845 22.8551 40.4267 22.9923C40.4689 23.1294 40.5371 23.2566 40.6273 23.3666L45.373 29.2161L40.6273 35.0655C40.447 35.2878 40.36 35.5747 40.3855 35.8629C40.411 36.1512 40.547 36.4172 40.7635 36.6025Z" fill="#CCF381"/>
<path d="M25.7524 36.4627C25.8414 36.5737 25.9509 36.6655 26.0746 36.7329C26.1984 36.8003 26.3338 36.8419 26.4732 36.8554C26.6127 36.8688 26.7533 36.8538 26.887 36.8112C27.0208 36.7686 27.145 36.6993 27.2526 36.6072C27.3602 36.5152 27.449 36.4022 27.5139 36.2747C27.5788 36.1473 27.6186 36.0079 27.6309 35.8646C27.6432 35.7213 27.6278 35.577 27.5856 35.4398C27.5433 35.3027 27.4752 35.1755 27.3849 35.0655L22.6393 29.2161L27.3849 23.3666C27.4752 23.2566 27.5433 23.1294 27.5856 22.9923C27.6278 22.8551 27.6432 22.7108 27.6309 22.5675C27.6186 22.4242 27.5788 22.2848 27.5139 22.1574C27.449 22.0299 27.3602 21.9169 27.2526 21.8249C27.145 21.7328 27.0208 21.6635 26.887 21.6209C26.7533 21.5783 26.6127 21.5633 26.4732 21.5767C26.3338 21.5902 26.1984 21.6318 26.0746 21.6992C25.9509 21.7666 25.8414 21.8584 25.7524 21.9694L20.4399 28.5175C20.2808 28.7136 20.1937 28.9608 20.1937 29.2161C20.1937 29.4713 20.2808 29.7185 20.4399 29.9146L25.7524 36.4627Z" fill="#CCF381"/>
</svg>
