<svg width="40" height="40" viewBox="0 0 40 40" fill="none" xmlns="http://www.w3.org/2000/svg">
<path d="M40 20C40 31.0457 31.0457 40 20 40C8.9543 40 0 31.0457 0 20C0 8.9543 8.9543 0 20 0C31.0457 0 40 8.9543 40 20Z" fill="#CCF381"/>
<path d="M13.25 13.25H26.75C26.9489 13.25 27.1397 13.329 27.2803 13.4697C27.421 13.6103 27.5 13.8011 27.5 14V26C27.5 26.1989 27.421 26.3897 27.2803 26.5303C27.1397 26.671 26.9489 26.75 26.75 26.75H13.25C13.0511 26.75 12.8603 26.671 12.7197 26.5303C12.579 26.3897 12.5 26.1989 12.5 26V14C12.5 13.8011 12.579 13.6103 12.7197 13.4697C12.8603 13.329 13.0511 13.25 13.25 13.25ZM20.045 19.7622L15.236 15.6785L14.2648 16.8215L20.0548 21.7378L25.7405 16.8177L24.7595 15.683L20.045 19.7622Z" fill="#4831D4"/>
</svg>
