<svg width="31" height="24" viewBox="0 0 31 24" fill="none" xmlns="http://www.w3.org/2000/svg">
<path d="M30.2222 12C30.2222 18.6274 23.6558 24 15.5556 24C7.45541 24 0.888916 18.6274 0.888916 12C0.888916 5.37258 7.45541 0 15.5556 0C23.6558 0 30.2222 5.37258 30.2222 12Z" fill="#CCF381"/>
<path d="M16.9815 12.875H18.7639L19.4769 10.5417H16.9815V9.375C16.9815 8.77417 16.9815 8.20833 18.4074 8.20833H19.4769V6.24833C19.2445 6.22325 18.3668 6.16667 17.4399 6.16667C15.5042 6.16667 14.1297 7.13325 14.1297 8.90833V10.5417H11.9908V12.875H14.1297V17.8333H16.9815V12.875Z" fill="#4831D4"/>
</svg>
