<svg width="133" height="39" viewBox="0 0 133 39" fill="none" xmlns="http://www.w3.org/2000/svg">
<g clip-path="url(#clip0_39_68)">
<path d="M32.1493 0.0325089V30.0845L35.7768 30.0992V15.7951H44.541V12.0091H35.7768V3.81847H47.1855V0.0325089H32.1493ZM53.7344 6.13129C55.0498 6.13129 56.102 4.99698 56.102 3.61223C56.102 2.22748 55.0359 1.09317 53.7344 1.09317C52.4191 1.09317 51.3669 2.22748 51.3669 3.61223C51.3669 4.99698 52.433 6.13129 53.7344 6.13129ZM51.893 9.91725V30.0845H55.5205V9.91725H51.893Z" fill="black"/>
<path fill-rule="evenodd" clip-rule="evenodd" d="M68.9922 9.328C64.1601 9.328 60.7957 13.6737 60.7957 18.8297C60.7957 23.9857 64.1601 28.3314 68.9922 28.3314C71.2075 28.3314 73.0212 27.4181 74.3504 25.945V28.6113C74.3504 31.9554 71.8859 34.7396 68.6599 34.7396C67.4969 34.7396 66.3477 34.2682 65.4339 33.5905L63.6063 36.9493C65.0601 37.951 66.7908 38.5255 68.6461 38.5255C73.7966 38.5255 77.9641 34.0914 77.9641 28.6113V9.91725H74.3504V11.7145C73.0212 10.2413 71.2075 9.328 68.9922 9.328ZM64.437 18.8297C64.437 15.633 66.7354 13.114 69.3937 13.114C72.0521 13.114 74.3504 15.633 74.3504 18.8297C74.3504 22.0264 72.0521 24.5455 69.3937 24.5455C66.7354 24.5455 64.437 22.0264 64.437 18.8297Z" fill="black"/>
<path d="M91.0758 13.114C88.9297 13.114 87.1852 15.0585 87.1852 17.3419V30.0845H83.5577V9.91725H87.1852V11.7587C88.2513 10.3003 89.8158 9.328 91.865 9.328C94.4126 9.328 96.3648 10.6685 97.5001 12.7309C98.7601 10.7422 100.809 9.328 103.288 9.328C107.427 9.328 110.003 12.8783 110.016 17.2682V30.0845H106.389V17.3271C106.389 15.0438 104.644 13.0992 102.498 13.0992C100.352 13.0992 98.6078 15.0438 98.6078 17.3271V30.0845H94.9802V17.3271C94.9664 15.0438 93.2218 13.114 91.0758 13.114Z" fill="black"/>
<path fill-rule="evenodd" clip-rule="evenodd" d="M129.372 12.2006C127.753 10.4181 125.537 9.328 122.976 9.328C117.576 9.328 113.727 14.2041 113.727 20.0082C113.727 25.8124 117.562 30.6885 122.976 30.6885C125.537 30.6885 127.753 29.5836 129.372 27.8159V30.0845H133V9.91725H129.372V12.2006ZM117.368 20.0082C117.368 16.1633 120.138 13.114 123.377 13.114C126.603 13.114 129.386 16.1486 129.386 20.0082C129.386 23.8531 126.617 26.9025 123.377 26.9025C120.138 26.8878 117.368 23.8531 117.368 20.0082Z" fill="black"/>
<path d="M12.1979 19.5074C12.1979 15.9276 14.9254 13.0108 18.3037 13.0108C21.6682 13.0108 24.4096 15.9129 24.4096 19.5074C24.4096 23.0871 21.6821 26.0039 18.3037 26.0039C14.9393 26.0039 12.1979 23.0871 12.1979 19.5074Z" fill="#1ABCFE"/>
<path d="M0 32.4857C0 28.906 2.72757 25.9892 6.10587 25.9892H12.2117V32.4857C12.2117 36.0654 9.48418 38.9822 6.10587 38.9822C2.72757 38.9822 0 36.0801 0 32.4857Z" fill="#0ACF83"/>
<path d="M12.1979 0.0325078V13.0108H18.3037C21.6682 13.0108 24.4096 10.1088 24.4096 6.51431C24.4096 2.93459 21.6821 0.0177765 18.3037 0.0177765H12.1979V0.0325078Z" fill="#FF7262"/>
<path d="M0 6.52904C0 10.1088 2.72757 13.0256 6.10587 13.0256H12.2117V0.0325089H6.10587C2.72757 0.0325089 0 2.93459 0 6.52904Z" fill="#F24E1E"/>
<path d="M0 19.5074C0 23.0871 2.72757 26.0039 6.10587 26.0039H12.2117V13.0108H6.10587C2.72757 13.0108 0 15.9276 0 19.5074Z" fill="#A259FF"/>
</g>
<defs>
<clipPath id="clip0_39_68">
<rect width="133" height="39" fill="white"/>
</clipPath>
</defs>
</svg>
