<svg width="62" height="63" viewBox="0 0 62 63" fill="none" xmlns="http://www.w3.org/2000/svg">
<path d="M27.125 32.4844H34.875V34.4531H27.125V32.4844Z" fill="#CCF381"/>
<path d="M30.0312 29.5312H31.9688V37.4062H30.0312V29.5312Z" fill="#CCF381"/>
<path d="M55.2188 32.4844H57.1562V34.4531H55.2188V32.4844Z" fill="#CCF381"/>
<path d="M47.4688 32.4844H49.4062V34.4531H47.4688V32.4844Z" fill="#CCF381"/>
<path d="M51.3438 28.5469H53.2812V30.5156H51.3438V28.5469Z" fill="#CCF381"/>
<path d="M51.3438 36.4219H53.2812V38.3906H51.3438V36.4219Z" fill="#CCF381"/>
<path d="M8.93114 17.3496L4.57176 11.8125L8.93114 6.27539L10.4439 7.50586L7.05324 11.8125L10.4439 16.1191L8.93114 17.3496Z" fill="#CCF381"/>
<path d="M24.0064 17.3496L22.4936 16.1191L25.8852 11.8125L22.4936 7.50586L24.0064 6.27539L28.3648 11.8125L24.0064 17.3496Z" fill="#CCF381"/>
<path d="M12.3478 15.1006L19.1309 7.22757L20.5888 8.52389L13.8056 16.3974L12.3478 15.1006Z" fill="#CCF381"/>
<path d="M7.75 43.3125H3.875V39.375H5.8125V41.3438H7.75V43.3125Z" fill="#CCF381"/>
<path d="M59.0938 1.96875H2.90625C1.30128 1.96875 0 3.29102 0 4.92188V44.2969C0 45.9277 1.30128 47.25 2.90625 47.25H23.25V52.1719C23.25 53.8027 21.9487 55.125 20.3438 55.125H15.5V61.0312H46.5V55.125H41.6562C40.0513 55.125 38.75 53.8027 38.75 52.1719V47.25H59.0938C60.6987 47.25 62 45.9277 62 44.2969V4.92188C62 3.29102 60.6987 1.96875 59.0938 1.96875ZM44.5625 57.0938V59.0625H17.4375V57.0938H44.5625ZM31 53.1976C32.605 53.1976 33.9062 51.8753 33.9062 50.2445V47.25H36.8125V52.1719C36.8163 53.2404 37.1654 54.2781 37.8063 55.125H24.1937C24.8346 54.2781 25.1837 53.2404 25.1875 52.1719V47.25H28.0938V50.2445C28.0938 51.8753 29.395 53.1976 31 53.1976ZM30.0312 50.2445V47.25H31.9688V50.2445C31.9688 50.7881 31.535 51.2288 31 51.2288C30.465 51.2288 30.0312 50.7881 30.0312 50.2445ZM60.0625 44.2969C60.0625 44.8405 59.6287 45.2812 59.0938 45.2812H2.90625C2.37126 45.2812 1.9375 44.8405 1.9375 44.2969V35.4375H21.5064C22.3087 39.4447 25.4666 42.5295 29.439 43.1856C33.411 43.8422 37.3683 41.933 39.3786 38.3906H43.932C45.5554 41.2587 48.4919 43.1029 51.7425 43.2962C54.9931 43.4894 58.1207 42.0056 60.0625 39.3495V44.2969ZM52.3125 41.3438C49.3679 41.351 46.6769 39.6523 45.378 36.9674L45.1098 36.4219H38.2027L37.9345 36.9674C36.2354 40.4483 32.2918 42.1503 28.6472 40.9751C25.0021 39.7994 22.7458 36.0989 23.3333 32.2589C23.9203 28.4195 27.1761 25.5894 31 25.5938H52.3125C56.5929 25.5938 60.0625 29.1193 60.0625 33.4688C60.0625 37.8182 56.5929 41.3438 52.3125 41.3438ZM60.0625 27.588C58.2404 25.0972 55.3668 23.6279 52.3125 23.625H31C25.652 23.6308 21.3182 28.0345 21.3125 33.4688H1.9375V4.92188C1.9375 4.37826 2.37126 3.9375 2.90625 3.9375H59.0938C59.6287 3.9375 60.0625 4.37826 60.0625 4.92188V27.588Z" fill="#CCF381"/>
<path d="M39.7188 32.4844H43.5938V34.4531H39.7188V32.4844Z" fill="#CCF381"/>
<path d="M29.0625 7.875H36.8125V9.84375H29.0625V7.875Z" fill="#CCF381"/>
<path d="M40.6875 7.875H56.1875V9.84375H40.6875V7.875Z" fill="#CCF381"/>
<path d="M42.625 11.8125H56.1875V13.7812H42.625V11.8125Z" fill="#CCF381"/>
<path d="M31 11.8125H38.75V13.7812H31V11.8125Z" fill="#CCF381"/>
<path d="M29.0625 15.75H48.4375V17.7188H29.0625V15.75Z" fill="#CCF381"/>
<path d="M52.3125 15.75H56.1875V17.7188H52.3125V15.75Z" fill="#CCF381"/>
<path d="M5.8125 19.6875H15.5V21.6562H5.8125V19.6875Z" fill="#CCF381"/>
<path d="M19.375 19.6875H37.7812V21.6562H19.375V19.6875Z" fill="#CCF381"/>
<path d="M40.6875 19.6875H56.1875V21.6562H40.6875V19.6875Z" fill="#CCF381"/>
<path d="M5.8125 23.625H21.3125V25.5938H5.8125V23.625Z" fill="#CCF381"/>
<path d="M5.8125 27.5625H13.5625V29.5312H5.8125V27.5625Z" fill="#CCF381"/>
<path d="M15.5 27.5625H19.375V29.5312H15.5V27.5625Z" fill="#CCF381"/>
</svg>
