<svg width="50" height="40" viewBox="0 0 50 40" fill="none" xmlns="http://www.w3.org/2000/svg">
<path d="M50 19.543C50 16.6361 45.852 13.8813 39.4925 12.173C40.96 6.48451 40.3078 1.95877 37.4338 0.509816C36.7713 0.169939 35.9967 0.00894401 35.1508 0.00894401V2.00349C35.6196 2.00349 35.9967 2.08399 36.3127 2.23604C37.6987 2.93368 38.3 5.59009 37.8312 9.00676C37.7191 9.84751 37.5357 10.733 37.3115 11.6363C35.3139 11.207 33.1329 10.8761 30.8398 10.6614C29.4639 9.00676 28.0371 7.50414 26.6001 6.18935C29.9225 3.47927 33.0412 1.99455 35.161 1.99455V0C32.3583 0 28.6894 1.75305 24.9796 4.79406C21.2699 1.77094 17.6009 0.0357767 14.7982 0.0357767V2.03032C16.9079 2.03032 20.0367 3.50611 23.3592 6.1983C21.9323 7.51309 20.5055 9.00676 19.15 10.6614C16.8467 10.8761 14.6657 11.207 12.6682 11.6453C12.4338 10.7509 12.2605 9.88328 12.1382 9.05148C11.6592 5.63481 12.2503 2.9784 13.6262 2.27181C13.9319 2.11082 14.3294 2.03927 14.7982 2.03927V0.0447207C13.9421 0.0447207 13.1675 0.205715 12.4949 0.545593C9.63106 1.99455 8.98899 6.51134 10.4668 12.1819C4.1276 13.8992 0 16.6451 0 19.543C0 22.4498 4.14798 25.2046 10.5075 26.9129C9.03995 32.6014 9.69221 37.1272 12.5662 38.5761C13.2287 38.916 14.0033 39.077 14.8594 39.077C17.662 39.077 21.331 37.3239 25.0408 34.2829C28.7505 37.306 32.4195 39.0412 35.2222 39.0412C36.0783 39.0412 36.8528 38.8802 37.5255 38.5403C40.3893 37.0914 41.0314 32.5746 39.5536 26.904C45.8724 25.1957 50 22.4409 50 19.543ZM36.7305 13.5772C36.3534 14.731 35.8846 15.9206 35.3547 17.1102C34.9368 16.3946 34.4986 15.6791 34.0196 14.9636C33.5508 14.248 33.0514 13.5504 32.552 12.8706C33.9992 13.0585 35.3954 13.291 36.7305 13.5772ZM32.0628 23.1027C31.2678 24.3102 30.4525 25.455 29.6066 26.5194C28.0881 26.6357 26.5491 26.6983 25 26.6983C23.4611 26.6983 21.9221 26.6357 20.4138 26.5283C19.5679 25.464 18.7424 24.3281 17.9474 23.1296C17.1728 21.9579 16.4696 20.7683 15.8276 19.5698C16.4594 18.3713 17.1729 17.1728 17.9372 16.0011C18.7322 14.7936 19.5475 13.6488 20.3934 12.5844C21.9119 12.4681 23.4509 12.4055 25 12.4055C26.5389 12.4055 28.0779 12.4681 29.5862 12.5755C30.4321 13.6398 31.2576 14.7757 32.0526 15.9743C32.8272 17.1459 33.5304 18.3355 34.1724 19.534C33.5304 20.7325 32.8271 21.9311 32.0628 23.1027ZM35.3547 21.94C35.905 23.1385 36.3738 24.337 36.7611 25.4998C35.426 25.786 34.0196 26.0275 32.5622 26.2153C33.0616 25.5266 33.5609 24.82 34.0298 24.0955C34.4986 23.38 34.9368 22.6555 35.3547 21.94ZM25.0204 31.4834C24.0726 30.6248 23.1247 29.6677 22.1871 28.6213C23.1044 28.6571 24.042 28.6839 24.9898 28.6839C25.9478 28.6839 26.8956 28.666 27.8231 28.6213C26.9058 29.6677 25.958 30.6248 25.0204 31.4834ZM17.4378 26.2153C15.9906 26.0275 14.5944 25.7949 13.2593 25.5087C13.6364 24.3549 14.1052 23.1653 14.6351 21.9758C15.053 22.6913 15.4912 23.4068 15.9702 24.1224C16.4492 24.8379 16.9384 25.5355 17.4378 26.2153ZM24.9694 7.60253C25.9172 8.46117 26.8651 9.41819 27.8027 10.4647C26.8854 10.4289 25.9478 10.402 25 10.402C24.042 10.402 23.0942 10.4199 22.1667 10.4647C23.084 9.41819 24.0318 8.46117 24.9694 7.60253ZM17.4276 12.8706C16.9283 13.5593 16.4289 14.2659 15.96 14.9904C15.4912 15.7059 15.053 16.4215 14.6351 17.137C14.0848 15.9385 13.616 14.74 13.2287 13.5772C14.5638 13.3 15.9702 13.0585 17.4276 12.8706ZM8.20424 24.0687C4.59641 22.7181 2.26254 20.9472 2.26254 19.543C2.26254 18.1387 4.59641 16.3588 8.20424 15.0172C9.08072 14.6863 10.0387 14.3911 11.0273 14.1139C11.6082 15.8669 12.3726 17.6915 13.3204 19.5609C12.3828 21.4212 11.6286 23.2369 11.0579 24.981C10.0489 24.7037 9.09091 24.3996 8.20424 24.0687ZM13.6873 36.8499C12.3013 36.1523 11.7 33.4958 12.1688 30.0792C12.2809 29.2384 12.4643 28.353 12.6885 27.4496C14.6861 27.8789 16.8671 28.2098 19.1602 28.4245C20.5361 30.0792 21.9629 31.5818 23.3999 32.8966C20.0775 35.6067 16.9588 37.0914 14.839 37.0914C14.3804 37.0824 13.9931 37.0019 13.6873 36.8499ZM37.8618 30.0345C38.3408 33.4511 37.7497 36.1075 36.3738 36.8141C36.0681 36.9751 35.6706 37.0467 35.2018 37.0467C33.0921 37.0467 29.9633 35.5709 26.6409 32.8787C28.0677 31.5639 29.4945 30.0702 30.85 28.4156C33.1533 28.2009 35.3343 27.87 37.3318 27.4317C37.5662 28.3351 37.7497 29.2026 37.8618 30.0345ZM41.7856 24.0687C40.9091 24.3996 39.9511 24.6948 38.9625 24.9721C38.3816 23.219 37.6172 21.3944 36.6694 19.5251C37.607 17.6647 38.3612 15.849 38.9319 14.1049C39.9409 14.3822 40.8989 14.6863 41.7958 15.0172C45.4036 16.3678 47.7375 18.1387 47.7375 19.543C47.7273 20.9472 45.3934 22.7271 41.7856 24.0687Z" fill="#61DAFB"/>
<path d="M24.9898 23.6304C27.5621 23.6304 29.6474 21.8004 29.6474 19.543C29.6474 17.2855 27.5621 15.4555 24.9898 15.4555C22.4175 15.4555 20.3322 17.2855 20.3322 19.543C20.3322 21.8004 22.4175 23.6304 24.9898 23.6304Z" fill="#61DAFB"/>
</svg>
