<svg width="52" height="51" viewBox="0 0 52 51" fill="none" xmlns="http://www.w3.org/2000/svg">
<path d="M9.20833 0H42.7917C47.8833 0 52 4.14103 52 9.26282V41.7372C52 46.859 47.8833 51 42.7917 51H9.20833C4.11667 51 0 46.859 0 41.7372V9.26282C0 4.14103 4.11667 0 9.20833 0Z" fill="#330000"/>
<path d="M25.3539 30.4536H17.2231L15.562 35.5655C15.5183 35.7613 15.3435 35.8918 15.1468 35.87H11.0377C10.7973 35.87 10.7317 35.7395 10.7973 35.4785L17.8351 15.3138C17.9007 15.0963 17.9663 14.857 18.0537 14.596C18.1411 14.1391 18.1848 13.6606 18.1848 13.182C18.163 13.0733 18.2504 12.9645 18.3597 12.9428H24.0206C24.1954 12.9428 24.2829 13.008 24.3047 13.1168L32.2824 35.522C32.348 35.7613 32.2824 35.87 32.0639 35.87H27.4958C27.3428 35.8918 27.1898 35.783 27.1461 35.6307L25.3539 30.4536ZM18.4908 26.0378H24.0424C23.9113 25.581 23.7365 25.0372 23.5397 24.4716C23.343 23.8843 23.1463 23.2535 22.9496 22.6009C22.731 21.9266 22.5343 21.274 22.3158 20.5997C22.0972 19.9253 21.9005 19.2945 21.7256 18.6637C21.5508 18.0546 21.3978 17.4891 21.2448 16.967H21.2011C21.0044 17.9024 20.7639 18.8377 20.4579 19.7731C20.1301 20.8172 19.8022 21.9048 19.4525 22.9925C19.1465 24.1019 18.8187 25.1242 18.4908 26.0378ZM37.1565 16.7495C36.4352 16.7712 35.7358 16.4884 35.2113 15.9881C34.7085 15.4443 34.4463 14.7265 34.4681 13.9869C34.4463 13.2473 34.7304 12.5512 35.255 12.0509C35.7795 11.5506 36.4789 11.2896 37.2002 11.2896C38.0526 11.2896 38.7083 11.5506 39.1892 12.0509C39.67 12.573 39.9323 13.269 39.9105 13.9869C39.9323 14.7265 39.67 15.4443 39.1455 15.9881C38.6428 16.5102 37.8996 16.793 37.1565 16.7495ZM34.7085 35.6307V18.8812C34.7085 18.6637 34.796 18.5767 34.9927 18.5767H39.3203C39.517 18.5767 39.6045 18.6854 39.6045 18.8812V35.6307C39.6045 35.87 39.517 35.9788 39.3203 35.9788H35.0364C34.8178 35.9788 34.7085 35.8483 34.7085 35.6307Z" fill="#FF9A00"/>
</svg>
