<svg width="78" height="68" viewBox="0 0 78 68" fill="none" xmlns="http://www.w3.org/2000/svg">
<g clip-path="url(#clip0_12_299)">
<path d="M36.3059 49.3385C35.6858 49.3385 35.1833 49.7845 35.1833 50.3346C35.1833 50.8847 35.6858 51.3307 36.3059 51.3307H41.6942C42.3143 51.3307 42.8167 50.8847 42.8167 50.3346C42.8167 49.7845 42.3143 49.3385 41.6942 49.3385H36.3059Z" fill="#CCF381"/>
<path d="M14.1542 33.8717H21.5744C22.0276 34.9184 23.1695 35.6647 24.5067 35.6647C25.8438 35.6647 26.9857 34.9184 27.4389 33.8717H28.922C29.5421 33.8717 30.0446 33.4257 30.0446 32.8756C30.0446 32.3255 29.5421 31.8795 28.922 31.8795H27.4389C26.9857 30.8328 25.8438 30.0865 24.5067 30.0865C23.1695 30.0865 22.0276 30.8328 21.5744 31.8795H14.1542C13.5341 31.8795 13.0316 32.3255 13.0316 32.8756C13.0316 33.4257 13.5341 33.8717 14.1542 33.8717ZM24.5067 32.0787C25.0019 32.0787 25.4047 32.4361 25.4047 32.8756C25.4047 33.3151 25.0019 33.6725 24.5067 33.6725C24.0114 33.6725 23.6086 33.3151 23.6086 32.8756C23.6086 32.4361 24.0114 32.0787 24.5067 32.0787Z" fill="#CCF381"/>
<path d="M14.1542 28.1608H15.5874C16.0407 29.2075 17.1825 29.9537 18.5197 29.9537C19.8569 29.9537 20.9987 29.2075 21.452 28.1608H28.922C29.5421 28.1608 30.0446 27.7148 30.0446 27.1647C30.0446 26.6146 29.5421 26.1686 28.922 26.1686H21.452C20.9987 25.1219 19.8569 24.3756 18.5197 24.3756C17.1825 24.3756 16.0407 25.1219 15.5874 26.1686H14.1542C13.5341 26.1686 13.0316 26.6146 13.0316 27.1647C13.0316 27.7148 13.5341 28.1608 14.1542 28.1608ZM18.5197 26.3678C19.015 26.3678 19.4177 26.7252 19.4177 27.1647C19.4177 27.6041 19.015 27.9615 18.5197 27.9615C18.0244 27.9615 17.6217 27.6041 17.6217 27.1647C17.6217 26.7252 18.0244 26.3678 18.5197 26.3678Z" fill="#CCF381"/>
<path d="M29.1465 18.9967C29.7665 18.9967 30.2691 18.5507 30.2691 18.0006C30.2691 17.4505 29.7665 17.0045 29.1465 17.0045C28.5266 17.0045 28.024 17.4505 28.024 18.0006C28.024 18.5507 28.5266 18.9967 29.1465 18.9967Z" fill="#CCF381"/>
<path d="M26.0532 18.9967C26.6732 18.9967 27.1758 18.5507 27.1758 18.0006C27.1758 17.4505 26.6732 17.0045 26.0532 17.0045C25.4332 17.0045 24.9307 17.4505 24.9307 18.0006C24.9307 18.5507 25.4332 18.9967 26.0532 18.9967Z" fill="#CCF381"/>
<path d="M22.96 18.9967C23.5799 18.9967 24.0825 18.5507 24.0825 18.0006C24.0825 17.4505 23.5799 17.0045 22.96 17.0045C22.34 17.0045 21.8374 17.4505 21.8374 18.0006C21.8374 18.5507 22.34 18.9967 22.96 18.9967Z" fill="#CCF381"/>
<path d="M73.9488 6.70477H73.5284L73.842 6.42652C74.7812 5.59313 74.7812 4.23698 73.842 3.40358L71.3846 1.22306C70.4454 0.389798 68.9173 0.389798 67.9779 1.22306L61.8007 6.70463H4.05119C2.19434 6.70463 0.683533 8.04511 0.683533 9.69291V51.0592C0.683533 53.0732 2.52991 54.7116 4.79956 54.7116H31.3884V61.7579H25.9784C24.5342 61.7579 23.3591 62.8006 23.3591 64.0821V65.0774C23.3591 66.359 24.5342 67.4017 25.9784 67.4017H52.0216C53.4658 67.4017 54.6409 66.359 54.6409 65.0774V64.0821C54.6409 62.8006 53.4658 61.7579 52.0216 61.7579H46.6117V54.7116H58.6073C59.2274 54.7116 59.7298 54.2656 59.7298 53.7155C59.7298 53.1654 59.2274 52.7194 58.6073 52.7194H4.79956C3.76786 52.7194 2.92864 51.9747 2.92864 51.0592V48.1108H39H75.0714V51.0592C75.0714 51.9747 74.2322 52.7194 73.2005 52.7194H63.8459C63.2258 52.7194 62.7233 53.1654 62.7233 53.7155C62.7233 54.2656 63.2258 54.7116 63.8459 54.7116H73.2005C75.4701 54.7116 77.3165 53.0732 77.3165 51.0592V9.69305C77.3165 8.04537 75.8057 6.70477 73.9488 6.70477ZM52.0216 63.7503C52.228 63.7503 52.3958 63.8993 52.3958 64.0823V65.0776C52.3958 65.2606 52.228 65.4096 52.0216 65.4096H25.9784C25.772 65.4096 25.6042 65.2606 25.6042 65.0776V64.0823C25.6042 63.8993 25.772 63.7503 25.9784 63.7503H52.0216ZM33.6335 54.7118H44.3667V61.7582H33.6335V54.7118ZM69.5655 2.63194C69.6296 2.57523 69.7334 2.57536 69.7972 2.63194L72.2544 4.81232C72.3183 4.86903 72.3183 4.96134 72.2544 5.01791L69.9097 7.09842L67.2209 4.71245L69.5655 2.63194ZM65.6333 6.12119L68.322 8.50716L67.5391 9.20191L64.8503 6.81593L65.6333 6.12119ZM63.2627 8.22467L65.9516 10.6106L52.6679 22.3979L49.979 20.0119L63.2627 8.22467ZM61.6008 17.3315C63.1276 17.3315 64.3697 18.4337 64.3697 19.7885C64.3697 21.1433 63.1276 22.2456 61.6008 22.2456C60.0739 22.2456 58.8318 21.1433 58.8318 19.7885C58.8318 19.7727 58.8342 19.7574 58.8345 19.7416L61.5484 17.3339C61.5659 17.3336 61.5831 17.3315 61.6008 17.3315ZM50.7186 23.4856L47.3963 24.6897L48.7532 21.7417L50.7186 23.4856ZM75.0714 46.1189H2.92864V9.69305C2.92864 9.14387 3.43214 8.69695 4.05119 8.69695H59.5558L57.8441 10.2158H19.6921C19.072 10.2158 18.5695 10.6618 18.5695 11.2119C18.5695 11.762 19.072 12.208 19.6921 12.208H55.5991L47.6812 19.2343C47.4575 19.4346 47.2825 19.6683 47.162 19.93L44.6545 25.3774C44.4245 25.8777 44.5541 26.4479 44.9847 26.8298C45.2737 27.0863 45.6581 27.2223 46.0501 27.2223C46.2423 27.2223 46.4361 27.1896 46.6216 27.1226L52.7604 24.8977C53.0469 24.7938 53.3031 24.6435 53.5247 24.4529L56.9396 21.423C57.6753 23.0698 59.4863 24.2379 61.6009 24.2379C64.3657 24.2379 66.615 22.242 66.615 19.7887C66.615 17.9125 65.2989 16.3056 63.4434 15.6527L67.3258 12.2081H71.1146V42.608H70.5197L66.4515 36.3555C66.1417 35.879 65.4547 35.7158 64.9181 35.991C64.3812 36.266 64.1973 36.8752 64.5073 37.3516L67.9273 42.608H52.246L50.5641 40.023L58.4048 27.9726L61.8878 33.326C62.198 33.8024 62.8845 33.9657 63.4212 33.6905C63.9581 33.4155 64.1421 32.8063 63.8321 32.3299L60.1161 26.6188C59.7589 26.0698 59.1192 25.742 58.4046 25.742C57.6901 25.742 57.0502 26.0698 56.693 26.6188L49.2676 38.031L39.7403 23.3883C39.383 22.8392 38.7433 22.5114 38.0286 22.5114C37.3142 22.5114 36.6744 22.8392 36.3171 23.3883L33.786 27.2785V16.6013C33.786 15.3198 32.6109 14.2771 31.1667 14.2771H11.9091C10.4649 14.2771 9.28977 15.3198 9.28977 16.6013V38.3825C9.28977 39.298 10.129 40.0427 11.1607 40.0427H25.4813L23.8122 42.6081H6.88556V12.208H14.4535C15.0736 12.208 15.5761 11.762 15.5761 11.2119C15.5761 10.6618 15.0736 10.2158 14.4535 10.2158H6.51138C5.47968 10.2158 4.64046 10.9605 4.64046 11.876V42.9399C4.64046 43.8553 5.47968 44.6 6.51138 44.6H71.4888C72.5205 44.6 73.3597 43.8553 73.3597 42.9399V11.876C73.3597 10.9605 72.5205 10.2158 71.4888 10.2158H69.5712L71.2831 8.69695H73.9488C74.5679 8.69695 75.0714 9.14387 75.0714 9.69305V46.1189ZM31.5413 22.1178V38.0502H11.5349V22.1178H31.5413ZM11.5349 20.1256V16.601C11.5349 16.418 11.7027 16.269 11.9091 16.269H31.1671C31.3735 16.269 31.5413 16.418 31.5413 16.601V20.1256H11.5349ZM28.0738 40.0424H31.9155C32.9472 40.0424 33.7864 39.2977 33.7864 38.3823V36.2723C34.0672 36.3918 34.3799 36.4565 34.7074 36.4565C35.4737 36.4565 36.1598 36.1048 36.5428 35.516L38.4533 32.58C38.511 32.4912 38.5993 32.4725 38.6629 32.4725C38.7269 32.4725 38.8152 32.4912 38.8728 32.58L40.0506 34.3901C40.4337 34.9791 41.12 35.3306 41.8865 35.3306C42.6528 35.3306 43.3391 34.9791 43.7221 34.3902L44.0145 33.9408L49.6536 42.6077H26.4047L28.0738 40.0424ZM33.7864 32.9379V31.2626L38.0292 24.7419L42.7182 31.9486L41.8863 33.227L40.8171 31.5837C40.3674 30.8927 39.5622 30.4802 38.6628 30.4802C37.7636 30.4802 36.9583 30.8927 36.5087 31.5837L34.7069 34.3529L33.7864 32.9379Z" fill="#CCF381"/>
</g>
<defs>
<clipPath id="clip0_12_299">
<rect width="76.633" height="68" fill="white" transform="translate(0.683533)"/>
</clipPath>
</defs>
</svg>
