<svg width="50" height="51" viewBox="0 0 50 51" fill="none" xmlns="http://www.w3.org/2000/svg">
<path d="M9.40257 0.039472L41.2207 0.00854896C46.0447 0.00386063 49.9494 4.0782 49.955 9.12221L49.99 41.1034C49.9955 46.1474 46.0997 50.2293 41.2757 50.234L9.45755 50.2649C4.63352 50.2696 0.728772 46.1952 0.72325 41.1512L0.688238 9.17009C0.682716 4.12608 4.57853 0.0441604 9.40257 0.039472Z" fill="#49021F"/>
<path d="M18.5914 13.1647L18.6132 35.2724C18.6135 35.5086 18.5109 35.616 18.3262 35.6162L14.3027 35.6205C14.118 35.6207 14.0358 35.5135 14.0355 35.2774L14.0137 13.1696C14.0135 12.9764 14.1161 12.8905 14.3008 12.8903L18.3038 12.886C18.4269 12.8644 18.5502 12.9501 18.5708 13.1003C18.5914 13.1218 18.5914 13.1432 18.5914 13.1647ZM30.4789 35.8606C28.9599 35.8837 27.4405 35.5634 26.0645 34.8995C24.7706 34.2785 23.7021 33.2494 22.9619 31.9838C22.2011 30.6753 21.83 29.0445 21.828 27.0912C21.8059 25.5029 22.1944 23.9357 22.9526 22.5612C23.7313 21.1652 24.8592 20.0049 26.2132 19.2307C27.6494 18.3921 29.3733 17.9824 31.4055 17.9802C31.5082 17.9801 31.6519 17.98 31.8366 18.0012C32.0214 18.0225 32.2267 18.0223 32.473 18.0435L32.4664 11.2609C32.4662 11.1106 32.5277 11.0247 32.6714 11.0246L36.8385 11.0201C36.9412 10.9985 37.0234 11.0843 37.044 11.1701L37.0642 31.6466C37.0646 32.033 37.0855 32.4622 37.1065 32.9344C37.148 33.3851 37.1689 33.8144 37.1898 34.1792C37.19 34.3295 37.1285 34.4583 36.9849 34.5229C35.9179 34.9962 34.7892 35.3409 33.6399 35.5567C32.6137 35.751 31.5463 35.8595 30.4789 35.8606ZM32.4864 31.5657L32.4771 22.1216C32.2923 22.0789 32.1075 22.0361 31.9227 22.0149C31.6969 21.9937 31.4711 21.9724 31.2453 21.9727C30.4447 21.9736 29.6443 22.1461 28.9262 22.5332C28.2286 22.8989 27.6338 23.4361 27.1829 24.1235C26.7319 24.8108 26.507 25.734 26.5081 26.8501C26.4884 27.6014 26.6123 28.3525 26.8593 29.0605C27.0651 29.6398 27.3736 30.1546 27.7845 30.5834C28.175 30.9694 28.6474 31.2693 29.1813 31.4405C29.7357 31.6331 30.3106 31.7183 30.8854 31.7177C31.1933 31.7173 31.4807 31.6956 31.7475 31.6738C32.0144 31.695 32.2607 31.6518 32.4864 31.5657Z" fill="#FF3366"/>
</svg>
