<svg width="30" height="24" viewBox="0 0 30 24" fill="none" xmlns="http://www.w3.org/2000/svg">
<path d="M29.7778 12C29.7778 18.6274 23.2113 24 15.1111 24C7.01095 24 0.444458 18.6274 0.444458 12C0.444458 5.37258 7.01095 0 15.1111 0C23.2113 0 29.7778 5.37258 29.7778 12Z" fill="#CCF381"/>
<path d="M15.1111 6.16667C17.0482 6.16667 17.2899 6.1725 18.0499 6.20167C18.8092 6.23083 19.3261 6.32825 19.781 6.47292C20.2516 6.62108 20.648 6.82175 21.0444 7.1455C21.4069 7.43711 21.6874 7.78984 21.8664 8.17917C22.0425 8.55075 22.1623 8.97425 22.198 9.5955C22.2315 10.2173 22.2407 10.4151 22.2407 12C22.2407 13.5849 22.2336 13.7827 22.198 14.4045C22.1623 15.0258 22.0425 15.4487 21.8664 15.8208C21.688 16.2104 21.4074 16.5632 21.0444 16.8545C20.6879 17.151 20.2568 17.3805 19.781 17.5271C19.3269 17.6712 18.8092 17.7692 18.0499 17.7983C17.2899 17.8258 17.0482 17.8333 15.1111 17.8333C13.174 17.8333 12.9323 17.8275 12.1723 17.7983C11.413 17.7692 10.8961 17.6712 10.4412 17.5271C9.96517 17.3809 9.53397 17.1514 9.17783 16.8545C8.81522 16.5629 8.53469 16.2102 8.35578 15.8208C8.17897 15.4493 8.0599 15.0258 8.02426 14.4045C7.99075 13.7827 7.98148 13.5849 7.98148 12C7.98148 10.4151 7.98861 10.2173 8.02426 9.5955C8.0599 8.97367 8.17897 8.55133 8.35578 8.17917C8.53419 7.7896 8.81479 7.43677 9.17783 7.1455C9.53408 6.84872 9.96525 6.61918 10.4412 6.47292C10.8961 6.32825 11.4123 6.23083 12.1723 6.20167C12.9323 6.17425 13.174 6.16667 15.1111 6.16667ZM15.1111 9.08333C14.1657 9.08333 13.2589 9.39062 12.5904 9.93761C11.9219 10.4846 11.5463 11.2265 11.5463 12C11.5463 12.7735 11.9219 13.5154 12.5904 14.0624C13.2589 14.6094 14.1657 14.9167 15.1111 14.9167C16.0566 14.9167 16.9633 14.6094 17.6318 14.0624C18.3003 13.5154 18.6759 12.7735 18.6759 12C18.6759 11.2265 18.3003 10.4846 17.6318 9.93761C16.9633 9.39062 16.0566 9.08333 15.1111 9.08333ZM19.7454 8.9375C19.7454 8.74411 19.6515 8.55865 19.4843 8.4219C19.3172 8.28516 19.0905 8.20833 18.8542 8.20833C18.6178 8.20833 18.3911 8.28516 18.224 8.4219C18.0569 8.55865 17.963 8.74411 17.963 8.9375C17.963 9.13089 18.0569 9.31635 18.224 9.4531C18.3911 9.58984 18.6178 9.66667 18.8542 9.66667C19.0905 9.66667 19.3172 9.58984 19.4843 9.4531C19.6515 9.31635 19.7454 9.13089 19.7454 8.9375ZM15.1111 10.25C15.6784 10.25 16.2224 10.4344 16.6235 10.7626C17.0246 11.0908 17.25 11.5359 17.25 12C17.25 12.4641 17.0246 12.9092 16.6235 13.2374C16.2224 13.5656 15.6784 13.75 15.1111 13.75C14.5438 13.75 13.9998 13.5656 13.5987 13.2374C13.1976 12.9092 12.9722 12.4641 12.9722 12C12.9722 11.5359 13.1976 11.0908 13.5987 10.7626C13.9998 10.4344 14.5438 10.25 15.1111 10.25Z" fill="#4831D4"/>
</svg>
