<svg width="31" height="24" viewBox="0 0 31 24" fill="none" xmlns="http://www.w3.org/2000/svg">
<path d="M30.2222 12C30.2222 18.6274 23.6558 24 15.5556 24C7.45541 24 0.888916 18.6274 0.888916 12C0.888916 5.37258 7.45541 0 15.5556 0C23.6558 0 30.2222 5.37258 30.2222 12Z" fill="#CCF381"/>
<path d="M11.948 7.91667C11.9478 8.22609 11.7974 8.52277 11.5298 8.74146C11.2623 8.96014 10.8995 9.08291 10.5213 9.08275C10.1432 9.0826 9.78055 8.95953 9.51327 8.74063C9.24599 8.52173 9.09595 8.22492 9.09613 7.9155C9.09632 7.60608 9.24674 7.3094 9.51428 7.09072C9.78183 6.87203 10.1446 6.74926 10.5228 6.74942C10.901 6.74957 11.2636 6.87264 11.5308 7.09154C11.7981 7.31044 11.9482 7.60725 11.948 7.91667ZM11.9908 9.94667H9.13891V17.25H11.9908V9.94667ZM16.4967 9.94667H13.6591V17.25H16.4682V13.4175C16.4682 11.2825 19.869 11.0842 19.869 13.4175V17.25H22.6852V12.6242C22.6852 9.025 17.6517 9.15917 16.4682 10.9267L16.4967 9.94667Z" fill="#4831D4"/>
</svg>
