<svg width="173" height="163" viewBox="0 0 173 163" fill="none" xmlns="http://www.w3.org/2000/svg">
<path d="M86.2391 71.0616L4.32923 35.962L86.4006 1L168.145 35.962L145.047 45.8932L86.264 20.8383L80.2598 23.5137L138.824 48.6133L115.888 58.4447L56.9137 33.3795L50.9095 36.0996L109.01 61.041L86.2391 71.0616Z" fill="#CCF381"/>
<path d="M83.1252 75.7315L83.2329 161.529L59.862 151.642L59.92 90.2431L53.7501 87.523L53.804 148.943L30.2964 138.946L30.4331 77.499L24.5365 74.9612L24.2632 136.495L1 126.612L1.16563 40.7247L83.1252 75.7315Z" fill="#CCF381"/>
<path d="M89.676 75.6868L112.285 66.1648L112.612 151.777L89.8417 161.254L89.676 75.6868Z" fill="#F5F5F5"/>
<path d="M118.836 63.1696L141.772 53.6476L142.261 114.865L171.586 102.351V126.429L119.001 149.012L118.836 63.1696Z" fill="#CCF381"/>
<path d="M86.2391 71.0616L4.32923 35.962L86.4006 1L168.145 35.962L145.047 45.8932L86.264 20.8383L80.2598 23.5137L138.824 48.6133L115.888 58.4447L56.9137 33.3795L50.9095 36.0996L109.01 61.041L86.2391 71.0616Z" stroke="#25276A" stroke-miterlimit="10"/>
<path d="M83.1252 75.7315L83.2329 161.529L59.862 151.642L59.92 90.2431L53.7501 87.523L53.804 148.943L30.2964 138.946L30.4331 77.499L24.5365 74.9612L24.2632 136.495L1 126.612L1.16563 40.7247L83.1252 75.7315Z" stroke="#25276A" stroke-miterlimit="10"/>
<path d="M89.676 75.6868L112.285 66.1648L112.612 151.777L89.8417 161.254L89.676 75.6868Z" stroke="#25276A" stroke-miterlimit="10"/>
<path d="M118.836 63.1696L141.772 53.6476L142.261 114.865L171.586 102.351V126.429L119.001 149.012L118.836 63.1696Z" stroke="#25276A" stroke-miterlimit="10"/>
</svg>
