<svg width="149" height="139" viewBox="0 0 149 139" fill="none" xmlns="http://www.w3.org/2000/svg">
<g clip-path="url(#clip0_230_142)">
<path d="M74.453 60.6668L2.90796 30.2738L74.594 0L145.994 30.2738L125.82 38.8733L74.4747 17.1781L69.2303 19.4947L120.383 41.2286L100.35 49.7388L48.8384 28.0346L43.594 30.3929L94.3421 51.9869L74.453 60.6668Z" fill="#CCF381"/>
<path d="M71.7331 64.7105L71.8271 139L51.4136 130.442L51.4642 77.2762L46.0715 74.9179L46.1221 128.105L25.5893 119.446L25.7086 66.241L20.5582 64.0435L20.3195 117.326L0 108.765L0.144674 34.3979L71.7331 64.7105Z" fill="#F5F5F5"/>
<path d="M77.455 64.6717L97.203 56.4236L97.4887 130.558L77.5996 138.765L77.455 64.6717Z" fill="#CCF381"/>
<path d="M102.925 53.833L122.959 45.5879L123.385 98.5961L149 87.7604V108.61L103.07 128.164L102.925 53.833Z" fill="#CCF381"/>
</g>
<defs>
<clipPath id="clip0_230_142">
<rect width="149" height="139" fill="white"/>
</clipPath>
</defs>
</svg>
