<svg width="53" height="51" viewBox="0 0 53 51" fill="none" xmlns="http://www.w3.org/2000/svg">
<path d="M9.38542 0H43.6146C48.8042 0 53 4.14103 53 9.26282V41.7372C53 46.859 48.8042 51 43.6146 51H9.38542C4.19583 51 0 46.859 0 41.7372V9.26282C0 4.14103 4.19583 0 9.38542 0Z" fill="#001E36"/>
<path d="M12.083 35.2681V13.116C12.083 12.9653 12.1497 12.8792 12.3053 12.8792C12.6832 12.8792 13.0388 12.8792 13.5501 12.8576C14.0836 12.8361 14.6393 12.8361 15.2395 12.8146C15.8397 12.7931 16.4843 12.7931 17.1734 12.7715C17.8625 12.75 18.5293 12.75 19.1962 12.75C21.0189 12.75 22.5305 12.9653 23.7753 13.4174C24.8867 13.7833 25.9092 14.3861 26.7539 15.1826C27.4652 15.8715 28.021 16.7111 28.3766 17.6368C28.71 18.541 28.8879 19.4667 28.8879 20.4354C28.8879 22.2868 28.4433 23.8153 27.5542 25.0208C26.665 26.2264 25.4202 27.1306 23.9753 27.6472C22.4638 28.1854 20.7966 28.3792 18.9739 28.3792C18.4404 28.3792 18.0847 28.3792 17.8625 28.3576C17.6402 28.3361 17.329 28.3361 16.9066 28.3361V35.2465C16.9289 35.3972 16.8177 35.5264 16.6621 35.5479H12.3498C12.1719 35.5479 12.083 35.4618 12.083 35.2681ZM16.9289 17.034V24.2674C17.2401 24.2889 17.529 24.3104 17.7958 24.3104H18.9739C19.8408 24.3104 20.7077 24.1812 21.5302 23.9229C22.2415 23.7292 22.8639 23.3201 23.3529 22.7819C23.8197 22.2437 24.042 21.5118 24.042 20.5646C24.0643 19.8972 23.8864 19.2299 23.5308 18.6486C23.1529 18.0889 22.6194 17.6583 21.9748 17.4215C21.1523 17.0986 20.2632 16.9694 19.3518 16.991C18.7738 16.991 18.2626 16.991 17.8402 17.0125C17.3957 16.991 17.0845 17.0125 16.9289 17.034ZM42.7586 22.9542C42.0917 22.6097 41.3804 22.3729 40.6246 22.2222C39.8022 22.05 38.9797 21.9424 38.135 21.9424C37.6904 21.9208 37.2236 21.9854 36.8013 22.0931C36.5123 22.1576 36.2678 22.3083 36.1122 22.5236C36.0011 22.6958 35.9344 22.9111 35.9344 23.1049C35.9344 23.2986 36.0233 23.4924 36.1567 23.6646C36.3567 23.9014 36.6235 24.0951 36.9124 24.2458C37.4237 24.5042 37.9572 24.741 38.4907 24.9562C39.691 25.3437 40.8469 25.8819 41.9139 26.5278C42.6474 26.9799 43.2476 27.5826 43.6699 28.3146C44.0256 29.0035 44.2034 29.7569 44.1812 30.5319C44.2034 31.5438 43.8922 32.5556 43.3143 33.3951C42.6919 34.2562 41.825 34.9236 40.8247 35.3111C39.7355 35.7632 38.4017 36 36.8013 36C35.7788 36 34.7785 35.9139 33.7782 35.7201C33.0002 35.591 32.2222 35.3542 31.5109 35.0312C31.3553 34.9451 31.2441 34.7944 31.2663 34.6222V30.8764C31.2663 30.8118 31.2886 30.7257 31.3553 30.6826C31.4219 30.6396 31.4886 30.6611 31.5553 30.7042C32.4222 31.1993 33.3336 31.5438 34.3117 31.759C35.1564 31.9743 36.0455 32.0819 36.9347 32.0819C37.7793 32.0819 38.3795 31.9743 38.7796 31.7806C39.1353 31.6299 39.3798 31.2639 39.3798 30.8764C39.3798 30.575 39.202 30.2951 38.8463 30.0153C38.4907 29.7354 37.7571 29.4125 36.6679 29.0035C35.5343 28.616 34.4895 28.0993 33.5114 27.4535C32.8223 26.9799 32.2444 26.3556 31.8221 25.6236C31.4664 24.9347 31.2886 24.1812 31.3108 23.4278C31.3108 22.5021 31.5775 21.6194 32.0666 20.8229C32.6223 19.9618 33.4448 19.2729 34.4006 18.8424C35.4453 18.3257 36.7568 18.0889 38.3351 18.0889C39.2464 18.0889 40.18 18.1535 41.0914 18.2826C41.7583 18.3687 42.4029 18.541 43.0031 18.7778C43.092 18.7993 43.1809 18.8854 43.2254 18.9715C43.2476 19.0576 43.2698 19.1437 43.2698 19.2299V22.7389C43.2698 22.825 43.2254 22.9111 43.1587 22.9542C42.9586 22.9972 42.8475 22.9972 42.7586 22.9542Z" fill="#31A8FF"/>
</svg>
