<svg width="50" height="45" viewBox="0 0 50 45" fill="none" xmlns="http://www.w3.org/2000/svg">
<path d="M41.146 45H8.854C3.958 45 0 41.3465 0 36.8271V8.17292C0 3.65354 3.958 0 8.854 0H41.146C46.042 0 50 3.65354 50 8.17292V36.8271C50 41.3465 46.042 45 41.146 45Z" fill="#FF26BE"/>
<path d="M40.354 43.0763H9.646C5.48 43.0763 2.084 39.9415 2.084 36.096V8.904C2.084 5.05846 5.48 1.92369 9.646 1.92369H40.334C44.522 1.92369 47.896 5.05846 47.896 8.904V36.0775C47.916 39.9415 44.52 43.0763 40.354 43.0763Z" fill="#2E001F"/>
<path d="M19.77 21.0572L25.604 31.4031C25.708 31.5563 25.646 31.7114 25.478 31.7114H21.852C21.622 31.7114 21.518 31.6541 21.414 31.4621C20.08 28.9237 18.726 26.3852 17.33 23.6548H17.288C16.038 26.232 14.662 28.944 13.33 31.4825C13.226 31.6357 13.122 31.6948 12.954 31.6948H9.52C9.312 31.6948 9.29 31.5415 9.396 31.4252L15.104 21.3858L9.584 11.232C9.458 11.0788 9.584 10.9625 9.708 10.9625H13.292C13.5 10.9625 13.584 11.0012 13.666 11.1748C14.978 13.7132 16.312 16.3292 17.562 18.8862H17.604C18.812 16.3477 20.146 13.7132 21.438 11.1932C21.542 11.04 21.604 10.944 21.814 10.944H25.168C25.334 10.944 25.398 11.0603 25.294 11.2135L19.77 21.0572ZM26.626 24.192C26.626 19.7114 29.856 16.2111 34.98 16.2111C35.418 16.2111 35.646 16.2111 36.064 16.2498V11.1545C36.064 11.0382 36.168 10.9625 36.272 10.9625H39.564C39.73 10.9625 39.772 11.0197 39.772 11.1157V28.7705C39.772 29.2892 39.772 29.9428 39.876 30.6554C39.876 30.7717 39.834 30.8086 39.71 30.8677C37.96 31.6375 36.126 31.9828 34.376 31.9828C29.854 31.9994 26.624 29.424 26.626 24.192ZM36.062 19.2702C35.77 19.1538 35.354 19.0782 34.854 19.0782C32.228 19.0782 30.396 20.9428 30.396 24.0406C30.396 27.5797 32.272 29.0031 34.626 29.0031C35.126 29.0031 35.668 28.9458 36.064 28.7908V19.2702H36.062Z" fill="#FFD9F2"/>
</svg>
