<svg width="31" height="24" viewBox="0 0 31 24" fill="none" xmlns="http://www.w3.org/2000/svg">
<path d="M30.1112 12C30.1112 18.6274 23.5447 24 15.4445 24C7.34432 24 0.777832 18.6274 0.777832 12C0.777832 5.37258 7.34432 0 15.4445 0C23.5447 0 30.1112 5.37258 30.1112 12Z" fill="#CCF381"/>
<path d="M22.2483 8.7905C22.5741 9.83 22.5741 12 22.5741 12C22.5741 12 22.5741 14.17 22.2483 15.2095C22.0672 15.7841 21.5375 16.2362 20.8666 16.389C19.6481 16.6667 15.4445 16.6667 15.4445 16.6667C15.4445 16.6667 11.243 16.6667 10.0224 16.389C9.34864 16.2338 8.81962 15.7823 8.64067 15.2095C8.31485 14.17 8.31485 12 8.31485 12C8.31485 12 8.31485 9.83 8.64067 8.7905C8.82176 8.21592 9.3515 7.76383 10.0224 7.611C11.243 7.33333 15.4445 7.33333 15.4445 7.33333C15.4445 7.33333 19.6481 7.33333 20.8666 7.611C21.5403 7.76617 22.0693 8.21767 22.2483 8.7905ZM14.0186 14.0417L18.2963 12L14.0186 9.95833V14.0417Z" fill="#4831D4"/>
</svg>
